<?xml version="1.0" encoding="UTF-8" standalone="no"?>
<svg
   xmlns:dc="http://purl.org/dc/elements/1.1/"
   xmlns:cc="http://creativecommons.org/ns#"
   xmlns:rdf="http://www.w3.org/1999/02/22-rdf-syntax-ns#"
   xmlns:svg="http://www.w3.org/2000/svg"
   xmlns="http://www.w3.org/2000/svg"
   xmlns:sodipodi="http://sodipodi.sourceforge.net/DTD/sodipodi-0.dtd"
   xmlns:inkscape="http://www.inkscape.org/namespaces/inkscape"
   width="400"
   height="400"
   viewBox="0 0 400 400"
   id="svg3336"
   version="1.1"
   inkscape:version="0.91 r13725"
   sodipodi:docname="applogo.svg"
   inkscape:export-filename="C:\Users\mr_ta\Documents\Visual Studio 2015\Projects\ZipPicViewCS\ZipPicViewUWP\Assets\applogo.png"
   inkscape:export-xdpi="90"
   inkscape:export-ydpi="90">
  <metadata
     id="metadata3344">
    <rdf:RDF>
      <cc:Work
         rdf:about="">
        <dc:format>image/svg+xml</dc:format>
        <dc:type
           rdf:resource="http://purl.org/dc/dcmitype/StillImage" />
        <dc:title></dc:title>
      </cc:Work>
    </rdf:RDF>
  </metadata>
  <defs
     id="defs3342" />
  <sodipodi:namedview
     pagecolor="#ffffff"
     bordercolor="#666666"
     borderopacity="1"
     objecttolerance="10"
     gridtolerance="10"
     guidetolerance="10"
     inkscape:pageopacity="0"
     inkscape:pageshadow="2"
     inkscape:window-width="1920"
     inkscape:window-height="1017"
     id="namedview3340"
     showgrid="false"
     inkscape:zoom="1"
     inkscape:cx="249.60378"
     inkscape:cy="136"
     inkscape:window-x="-8"
     inkscape:window-y="-8"
     inkscape:window-maximized="1"
     inkscape:current-layer="svg3336"
     showguides="true"
     inkscape:guide-bbox="true">
    <sodipodi:guide
       position="200.75472,720.60377"
       orientation="1,0"
       id="guide4134" />
  </sodipodi:namedview>
  <path
     id="path3350"
     d="m 173.21605,87.827508 0,-28.5714 -28.57143,0 0,28.5714 28.57143,0 z m 28.57143,28.571402 0,-28.571402 -28.57143,0 0,28.571402 28.57143,0 z m -28.57143,28.5714 0,-28.5714 -28.57143,0 0,28.5714 28.57143,0 z m 28.57143,28.5715 0,-28.5715 -28.57143,0 0,28.5715 28.57143,0 z m 156.25,-86.607202 q 6.25,6.25 10.71429,16.964302 4.46429,10.7143 4.46429,19.6429 l 0,257.1428 q 0,8.9286 -6.25,15.1786 -6.25,6.25 -15.17858,6.25 l -300.000005,0 q -8.92857,0 -15.17857,-6.25 -6.25,-6.25 -6.25,-15.1786 l 0,-357.142802 q 0,-8.9286 6.25,-15.1786005 6.25,-6.25 15.17857,-6.25 l 200.000005,0 q 8.92858,0 19.64286,4.4643 10.71429,4.4643005 16.96429,10.7143005 z m -99.10714,-54.4643 0,83.928602 83.92857,0 q -2.23214,-6.4732 -4.91071,-9.1518 L 268.08213,37.381108 q -2.67857,-2.6786 -9.15179,-4.9108 z m 85.71429,341.071502 0,-228.5715 -92.85715,0 q -8.92857,0 -15.17857,-6.25 -6.25,-6.25 -6.25,-15.1785 l 0,-92.857202 -28.57143,0 0,28.5715 -28.57143,0 0,-28.5715 -114.285715,0 0,342.857202 285.714295,0 z m -139.95536,-160.9375 23.88393,77.9018 q 1.78571,6.0267 1.78571,11.6071 0,18.5268 -16.18304,30.692 -16.18303,12.1651 -40.95982,12.1651 -24.77678,0 -40.95982,-12.1651 -16.18303,-12.1652 -16.18303,-30.692 0,-5.5804 1.78571,-11.6071 4.6875,-14.0625 26.78571,-88.3929 l 0,-28.5714 28.57143,0 0,28.5714 17.63393,0 q 4.91072,0 8.70536,2.9018 3.79464,2.9018 5.13393,7.5893 z m -31.47322,103.7946 q 11.83036,0 20.20089,-4.2411 8.37054,-4.241 8.37054,-10.0446 0,-5.8036 -8.37054,-10.0446 -8.37053,-4.2411 -20.20089,-4.2411 -11.83035,0 -20.20089,4.2411 -8.37054,4.241 -8.37054,10.0446 0,5.8036 8.37054,10.0446 8.37054,4.2411 20.20089,4.2411 z"
     inkscape:connector-curvature="0"
     style="opacity:1;fill:#ffffff" />
  <path
     d="m 358.08802,86.934608 q 6.25,6.25 10.71429,16.964302 4.46428,10.7143 4.46428,19.6429 l 0,257.1428 q 0,8.9286 -6.25,15.1786 -6.25,6.25 -15.17857,6.25 l -300.000005,0 q -8.92857,0 -15.17857,-6.25 -6.25,-6.25 -6.25,-15.1786 l 0,-357.142802 q 0,-8.9286 6.25,-15.1786005 6.25,-6.25 15.17857,-6.25 l 200.000005,0 q 8.92857,0 19.64286,4.4643 10.71428,4.4643005 16.96428,10.7143005 z m -99.10714,-54.4643 0,83.928602 83.92857,0 q -2.23214,-6.4732 -4.91072,-9.1518 L 268.13266,37.381108 q -2.67857,-2.6786 -9.15178,-4.9108 z m 85.71428,341.071502 0,-228.5715 -92.85714,0 q -8.92857,0 -15.17857,-6.25 -6.25,-6.25 -6.25,-15.1785 l 0,-92.857202 -171.428575,0 0,342.857202 285.714285,0 z m -28.57143,-100 0,71.4285 -228.571425,0 0,-42.8571 42.857145,-42.8571 28.57143,28.5714 85.71428,-85.7143 z m -185.71428,-42.8572 q -17.85714,0 -30.35714,-12.5 -12.500005,-12.5 -12.500005,-30.3571 0,-17.8572 12.500005,-30.3572 12.5,-12.5 30.35714,-12.5 17.85714,0 30.35714,12.5 12.5,12.5 12.5,30.3572 0,17.8571 -12.5,30.3571 -12.5,12.5 -30.35714,12.5 z"
     id="path3338"
     style="opacity:0.66500005;fill:#ffffff"
     inkscape:connector-curvature="0" />
</svg>
